<?xml version="1.0" standalone="no"?>
<!DOCTYPE svg PUBLIC "-//W3C//DTD SVG 20010904//EN" "http://www.w3.org/TR/2001/REC-SVG-20010904/DTD/svg10.dtd">
<!-- Created using Krita: https://krita.org -->
<svg xmlns="http://www.w3.org/2000/svg" 
    xmlns:xlink="http://www.w3.org/1999/xlink"
    xmlns:krita="http://krita.org/namespaces/svg/krita"
    xmlns:sodipodi="http://sodipodi.sourceforge.net/DTD/sodipodi-0.dtd"
    width="877.5pt"
    height="237pt"
    viewBox="0 0 877.5 237">
<defs/>
<path id="shape0" transform="translate(0.32530041443002, 100.731335857321)" fill="#ffffff" stroke="#ffffff" stroke-width="0" stroke-linecap="square" stroke-linejoin="bevel" d="M0 133.301C1.62503 116.504 2.81253 102.442 3.56253 91.1135C4.31253 79.7854 5.06253 64.7287 5.81253 45.9436C6.56253 27.158 6.93753 14.707 6.93753 8.59L6.83203 0C22.1992 0.125 40.789 0.188 62.6015 0.188C82.7187 0.188 100.461 0.125 115.828 0L115.629 3.223C115.566 4.004 115.402 6.836 115.137 11.719L114.551 22.36C114.426 24.641 114.363 26.953 114.363 29.297C101.793 28.774 91.242 28.512 82.7109 28.512C73.3359 28.512 67.0058 28.528 63.7207 28.559C60.4355 28.59 55.3086 28.738 48.3398 29.004L47.1679 51.3635C54.8476 51.5588 63.8008 51.6565 74.0273 51.6565C77.6679 51.6565 87.3672 51.4299 103.125 50.9768C102.477 59.3127 101.859 69.2424 101.273 80.7658C90.0078 80.633 81.3476 80.5666 75.2929 80.5666C66.3086 80.5666 56.25 80.7932 45.1172 81.2463L43.9453 104.977L55.1718 104.977C58.4922 104.977 65.3633 104.879 75.7851 104.684L96 104.203C98.992 104.133 104.004 103.871 111.035 103.418C110.254 113.051 109.605 123.012 109.09 133.301C93.199 133.168 75.7812 133.102 56.8359 133.102L13.8633 133.207L0 133.301M240.727 133.301C233.758 133.168 227.965 133.102 223.348 133.102C218.137 133.102 211.82 133.168 204.398 133.301L204.984 120.903C202.445 123.371 200.23 125.371 198.34 126.903C196.449 128.434 194.023 129.916 191.062 131.35C188.102 132.783 184.912 133.891 181.494 134.672C178.076 135.453 174.543 135.844 170.895 135.844C164.645 135.844 158.803 134.703 153.369 132.422C147.936 130.141 143.297 126.901 139.453 122.701C135.609 118.502 132.744 113.522 130.857 107.76C128.971 101.998 128.027 96.0276 128.027 89.8479C128.027 81.0588 129.752 72.4651 133.201 64.0666C136.65 55.6682 141.158 49.0588 146.725 44.2385C152.291 39.4182 158.574 36.0158 165.574 34.0315C172.574 32.047 180.145 31.055 188.285 31.055C193.684 31.055 199.996 31.543 207.223 32.52C207.746 24.77 208.105 13.93 208.301 0C216.309 0.125 222.852 0.188 227.93 0.188C234.508 0.188 241.148 0.125 247.852 0C245.969 19.336 244.311 42.9358 242.877 70.799C241.443 98.6623 240.727 119.496 240.727 133.301M205.863 57.9143C202.41 57.133 199.152 56.7424 196.09 56.7424C189.777 56.7424 184.408 57.9631 179.982 60.4045C175.557 62.8459 172.154 66.6545 169.775 71.8303C167.396 77.0061 166.207 82.0979 166.207 87.1057C166.207 90.8869 166.875 94.2912 168.211 97.3186C169.547 100.346 171.598 102.738 174.363 104.496C177.129 106.254 180.207 107.133 183.598 107.133C187.176 107.133 190.445 106.123 193.406 104.104C196.367 102.084 198.775 99.1213 200.631 95.2151C202.486 91.3088 203.756 86.6701 204.439 81.299C205.123 75.928 205.598 68.133 205.863 57.9143M371.988 133.301C364.566 133.168 358.379 133.102 353.426 133.102C347.309 133.102 341.156 133.168 334.969 133.301L334.875 119.918C332.531 122.848 330.545 125.045 328.916 126.51C327.287 127.975 325.512 129.262 323.59 130.371C321.668 131.481 319.52 132.442 317.145 133.254C314.77 134.067 312.035 134.701 308.941 135.158C305.848 135.615 302.707 135.844 299.52 135.844C294.379 135.844 289.514 135.24 284.924 134.033C280.334 132.826 276.297 130.791 272.812 127.928C269.328 125.065 266.951 121.811 265.682 118.166C264.412 114.522 263.777 110.289 263.777 105.469C263.777 104.297 263.875 102.473 264.07 99.9963L265.629 77.8362C266.09 69.6955 266.516 60.676 266.906 50.7776C267.164 44.7229 267.293 38.9963 267.293 33.5979C275.363 33.7229 282.23 33.7854 287.895 33.7854C293.629 33.7854 299.945 33.7229 306.844 33.5979L303.82 70.8049C303.359 76.469 303.113 80.3264 303.082 82.3772C303.051 84.428 303.035 85.8088 303.035 86.5197C303.035 93.3557 304.418 97.9787 307.184 100.389C309.949 102.799 313.254 104.004 317.098 104.004C318.66 104.004 320.223 103.778 321.785 103.324C323.348 102.863 324.844 102.211 326.273 101.367C327.516 100.586 328.656 99.6096 329.695 98.4377C330.805 97.2033 331.781 95.7072 332.625 93.9494C333.664 91.801 334.445 89.4885 334.969 87.0119C335.687 83.5588 336.242 79.1955 336.633 73.9221C336.891 70.0862 337.246 63.4455 337.699 54.0002L338.484 33.5979C346.883 33.7229 353.785 33.7854 359.191 33.7854C365.246 33.7854 371.332 33.7229 377.449 33.5979C375.957 50.1291 374.787 65.8498 373.939 80.76C373.092 95.6701 372.441 113.184 371.988 133.301M395.332 133.301L397.277 112.793L401.086 43.2658L402.164 15.235L402.164 0C412.258 0.125 421.176 0.188 428.918 0.188C434.457 0.188 442.238 0.125 452.262 0L494.062 75.7854L499.828 86.9182C500.539 75.9807 501.27 60.6467 502.02 40.9162C502.77 21.186 503.145 7.547 503.145 0C511.152 0.125 517.566 0.188 522.387 0.188C524.598 0.188 530.977 0.125 541.523 0L539.18 29.098L534.785 109.957L534.199 133.301C525.738 133.168 517.828 133.102 510.469 133.102C504.352 133.102 495.887 133.168 485.074 133.301C481.691 126.918 479.184 122.297 477.551 119.438L461.145 91.6057C455.746 82.4885 450.766 73.7619 446.203 65.426C443.211 60.1526 440.121 54.3596 436.934 48.0471L434.883 94.3362L433.898 133.301C425.828 133.168 419.676 133.102 415.441 133.102C411.863 133.102 405.16 133.168 395.332 133.301M654.914 103.805C654.062 107.711 652.434 117.153 650.027 132.129C642.473 133.629 636.123 134.623 630.978 135.112C625.834 135.6 620.625 135.844 615.352 135.844C607.609 135.844 600.482 135.307 593.971 134.233C587.459 133.158 581.844 131.254 577.125 128.52C572.406 125.785 568.451 122.383 565.26 118.313C562.068 114.242 559.643 109.408 557.982 103.811C556.322 98.2131 555.492 92.4494 555.492 86.5197C555.492 78.1916 557.152 70.0393 560.473 62.0627C563.793 54.0862 568.074 47.8518 573.316 43.3596C578.559 38.8674 584.598 35.676 591.434 33.7854C598.27 31.895 605.266 30.949 612.422 30.949C619.844 30.949 626.924 31.813 633.662 33.5393C640.4 35.2658 646.115 38.2776 650.807 42.5744C655.498 46.8713 658.836 51.7229 660.82 57.1291C662.805 62.5354 663.797 68.3635 663.797 74.6135C663.797 78.3244 663.375 82.4572 662.531 87.0119L594.07 87.1057C594 88.1526 593.965 89.0979 593.965 89.9416C593.965 96.9729 596.473 102.149 601.488 105.469C606.504 108.789 612.625 110.449 619.852 110.449C624.148 110.449 629.047 109.945 634.547 108.938C640.047 107.93 646.836 106.219 654.914 103.805M594.844 72.1643L627.07 72.1643C627.141 71.0627 627.176 70.1213 627.176 69.3401C627.176 65.9494 626.572 63.051 625.365 60.6447C624.158 58.2385 622.432 56.4807 620.186 55.3713C617.939 54.2619 615.418 53.7072 612.621 53.7072C610.668 53.7072 608.779 54.0178 606.955 54.6389C605.131 55.26 603.486 56.1721 602.021 57.3752C600.557 58.5783 599.336 59.9612 598.359 61.5237C597.383 63.0862 596.668 64.5998 596.215 66.0647C595.762 67.5295 595.305 69.5627 594.844 72.1643M666.035 133.301L688.301 103.711L704.812 81.0588L674.145 33.5979C683.652 33.7229 691.824 33.7854 698.66 33.7854C707.254 33.7854 714.316 33.7229 719.848 33.5979L730.195 55.9572C730.852 57.3244 731.797 59.4416 733.031 62.3088C738.047 53.7151 743.973 44.1447 750.809 33.5979C756.598 33.7229 763.531 33.7854 771.609 33.7854C779.094 33.7854 786.223 33.7229 792.996 33.5979L777.375 54.1057C774.312 58.1369 767.766 66.9885 757.734 80.6604C763.727 91.0119 774.668 108.559 790.559 133.301C783.199 133.168 775.937 133.102 768.773 133.102C760.047 133.102 752.234 133.168 745.336 133.301C741.102 124.184 737.861 117.445 735.615 113.086C733.369 108.727 731.465 104.723 729.902 101.074L726.785 106.442C725.809 108.074 724.309 110.485 722.285 113.672L709.887 133.301C702.855 133.168 696.02 133.102 689.379 133.102C681.699 133.102 673.918 133.168 666.035 133.301M876.293 104.59C875.121 110.059 874.113 115.399 873.27 120.61L871.125 132.516C864.68 133.953 859.65 134.867 856.037 135.258C852.424 135.649 848.922 135.844 845.531 135.844C840 135.844 835.086 135.371 830.789 134.426C826.492 133.481 822.912 131.754 820.049 129.246C817.186 126.738 815.232 123.858 814.189 120.604C813.146 117.35 812.625 113.899 812.625 110.25C812.625 109.602 812.658 108.447 812.725 106.787C812.791 105.127 813.02 101.434 813.41 95.7072L815.555 61.9104L800.32 61.9104C800.648 57.4182 800.941 51.4963 801.199 44.1447L801.492 35.0627L817.699 35.0627C818.09 32.063 818.578 25.516 819.164 15.422L835.863 12.012C838.926 11.426 845.437 9.926 855.398 7.512C854.945 16.043 854.621 25.227 854.426 35.0627L876.691 35.0627C876.168 48.6018 875.906 57.551 875.906 61.9104L853.441 61.9104L852.27 86.3322C852.145 89.9729 852.082 92.3166 852.082 93.3635C852.082 96.4885 852.424 99.092 853.107 101.174C853.791 103.256 854.994 104.752 856.717 105.662C858.439 106.572 860.344 107.028 862.43 107.028C863.992 107.028 865.619 106.914 867.311 106.688C869.002 106.461 871.996 105.762 876.293 104.59" sodipodi:nodetypes="ccccccccccccccccccccccccccccccccccccccccccccccccccccccccccccccccccccccccccccccccccccccccccccccccccccccccccccccccccccccccccccccccccccccccccccccccccccccccccccccccccccccccccccccccccccccccccccccccccccccccccccccccccccc"/><path id="shape01" transform="translate(449.816240439063, 308.047495267029)" fill="#00fff0" fill-rule="evenodd" stroke="#00fff0" stroke-width="20.25" stroke-linecap="square" stroke-linejoin="miter" stroke-miterlimit="2" d="M0 0" sodipodi:nodetypes="c"/><path id="shape02" transform="matrix(-0.78135776405947 0.986329785077794 -0.986155324917689 -0.781472773669555 801.306576261763 94.9720258848031)" fill="#00fff0" fill-rule="evenodd" stroke-opacity="0" stroke="#000000" stroke-width="0" stroke-linecap="square" stroke-linejoin="bevel" d="M0.000930038 63.4151C-0.0373904 49.1209 1.10848 27.9826 3.43854 0C2.53763 40.8248 2.4255 82.3426 3.43854 124.849L3.35765 125.238C1.14821 94.6046 0.0292981 73.9969 0.000930038 63.4151Z" sodipodi:nodetypes="ccccs"/><path id="shape011" transform="matrix(-0.732019949878896 1.02349268760964 -1.02331279347951 -0.732126259143867 797.51404911423 96.3050261479631)" fill="#00fff0" fill-rule="evenodd" stroke-opacity="0" stroke="#000000" stroke-width="0" stroke-linecap="square" stroke-linejoin="bevel" d="M0.000930038 63.4151C-0.0373904 49.1209 1.10848 27.9826 3.43854 0C3.15634 41.194 3.16515 82.8236 3.43854 124.849L3.35765 125.238C1.14821 94.6046 0.0292981 73.9969 0.000930038 63.4151Z" sodipodi:nodetypes="ccccs"/><path id="shape021" transform="matrix(-0.69076443080937 1.05178598492537 -1.05160200715296 -0.690863505211393 794.374426101618 97.8659492108465)" fill="#00fff0" fill-rule="evenodd" stroke-opacity="0" stroke="#000000" stroke-width="0" stroke-linecap="square" stroke-linejoin="bevel" d="M0.000734266 62.5136C-0.0375862 48.2194 1.42673 27.9826 3.75679 0C2.2648 41.7259 3.08831 83.2818 3.75679 124.849L3.35745 124.337C1.14801 93.7031 0.0291023 73.0954 0.000734266 62.5136Z" sodipodi:nodetypes="ccccs"/><path id="shape03" transform="matrix(-0.602166224214169 1.1049168443319 -1.10472535896266 -0.602249871755913 785.552188117077 102.011386329203)" fill="#00fff0" fill-rule="evenodd" stroke-opacity="0" stroke="#000000" stroke-width="0" stroke-linecap="square" stroke-linejoin="bevel" d="M0.000543133 63.0173C-0.0377773 48.7231 1.95701 27.9826 4.28707 0C3.35758 39.8699 3.10861 81.0184 4.28707 124.849L4.20618 125.238C1.99674 94.6046 0.0289112 73.5991 0.000543133 63.0173Z" sodipodi:nodetypes="ccccs"/><path id="shape04" transform="matrix(-0.545428004202206 1.13400788329753 -1.13381240624343 -0.545501843752566 785.645835036772 106.121936887062)" fill="#00fff0" fill-rule="evenodd" stroke-opacity="0" stroke="#000000" stroke-width="0" stroke-linecap="square" stroke-linejoin="bevel" d="M0.000469648 63.134C-0.0378508 48.8398 2.27523 27.9826 4.60529 0C3.67903 40.4788 3.58004 81.9736 4.60529 124.849L4.5244 125.238C2.31496 94.6046 0.0288377 73.7158 0.000469648 63.134Z" sodipodi:nodetypes="ccccs"/><path id="shape05" transform="matrix(-0.497766555707857 1.15572888081348 -1.15553049996019 -0.497832195596072 783.544513287774 109.286585179803)" fill="#00fff0" fill-rule="evenodd" stroke-opacity="0" stroke="#000000" stroke-width="0" stroke-linecap="square" stroke-linejoin="bevel" d="M0.000487294 63.2586C-0.0378331 48.9644 2.19008 27.9826 4.52014 0C4.21147 20.784 4.04602 41.6912 4.04337 62.7384C4.04077 83.303 4.19361 104.001 4.52014 124.849L4.43925 125.238C2.22981 94.6046 0.0288554 73.8404 0.000487294 63.2586Z" sodipodi:nodetypes="cccccs"/><path id="shape06" transform="matrix(-0.658396903345528 1.07235098386055 -1.07216407232501 -0.658490325161807 784.376068730294 98.1783287002466)" fill="#00fff0" fill-rule="evenodd" stroke-opacity="0" stroke="#000000" stroke-width="0" stroke-linecap="square" stroke-linejoin="bevel" d="M0.00126968 60.0734C-0.0370508 46.4911 0.78732 26.589 3.11738 0L3.11738 118.631L3.03649 119.001C0.82705 89.893 0.0296377 70.1282 0.00126968 60.0734Z" sodipodi:nodetypes="ccccs"/><path id="shape1" transform="matrix(1.6572730953731 -1.08828884333842 1.10568067264219 1.63120498050267 630.666820801713 185.689685977598)" fill="#00fff0" fill-rule="evenodd" stroke-opacity="0" stroke="#000000" stroke-width="0" stroke-linecap="square" stroke-linejoin="bevel" d="M20.3339 7.22017C5.83826 22.0366 40.5524 28.2634 65.2423 25.3589C81.7023 23.4225 88.2243 14.9695 84.8083 0C88.5693 6.51144 89.3308 12.2652 87.0928 17.2612C79.564 34.0684 54.4991 34.4932 5.83166 32.328C-4.98571 31.8468 -1.08895 14.8903 20.3339 7.22017Z" sodipodi:nodetypes="czcssc"/>
</svg>
